# xmcd
#
# Track frame offsets:
#	150
#	28795
#	89210
#	119657
#	159590
#	188200
#	216877
#	246990
#	266772
#	291720
#
# Disc length: 4665
#
# Revision: 1
# Processed by: cddbd v1.5.1PL0 Copyright (c) Steve Scherf et al.
# Submitted via: CDex 1.50
# Normalized: r0:DSETVAR1,TDELIM( - )
#
DISCID=a712370a
DTITLE=Various Artist - The Prestige Records Story - CD2
DYEAR=1999
DGENRE=Jazz
TTITLE0=James Moody - Disappointed
TTITLE1=Miles Davis Sextet - Walkin
TTITLE2=Sonny Rollins - St Thomas
TTITLE3=Sonny Rollins - Pent-up House
TTITLE4=Miles Davis Quintet - Well you Need not
TTITLE5=Tadd Dameron - On a Misty Night
TTITLE6=Rad Garland - If i were a Bell
TTITLE7=Gil Evans - Nobodys Heart
TTITLE8=John Coltrane - Russian Lullaby
TTITLE9=Eddie Lockjaw Davis - In the Kitchen
EXTD=YEAR: 1999
EXTT0=
EXTT1=
EXTT2=
EXTT3=
EXTT4=
EXTT5=
EXTT6=
EXTT7=
EXTT8=
EXTT9=
PLAYORDER=
